<?xml version="1.0" encoding="UTF-8"?>
<svg width="700pt" height="700pt" version="1.1" viewBox="0 0 700 700" xmlns="http://www.w3.org/2000/svg" xmlns:xlink="http://www.w3.org/1999/xlink">
 <g>
  <path d="m568.75 140h-70c-4.832 0-8.75 3.918-8.75 8.75v122.5h-227.5v-52.5c0-3.25-1.8008-6.2305-4.6758-7.7422-2.875-1.5156-6.3516-1.3086-9.0312 0.53125l-140 96.25c-2.375 1.6328-3.793 4.3281-3.793 7.2109s1.418 5.5781 3.793 7.2109l140 96.25c2.6797 1.8398 6.1562 2.0469 9.0312 0.53125 2.875-1.5117 4.6758-4.4922 4.6758-7.7422v-52.5h306.25c2.3203 0 4.5469-0.92188 6.1875-2.5625s2.5625-3.8672 2.5625-6.1875v-201.25c0-2.3203-0.92188-4.5469-2.5625-6.1875s-3.8672-2.5625-6.1875-2.5625zm-8.75 201.25h-306.25c-4.832 0-8.75 3.918-8.75 8.75v44.617l-115.81-79.617 115.81-79.617v44.617c0 2.3203 0.92188 4.5469 2.5625 6.1875s3.8672 2.5625 6.1875 2.5625h245c2.3203 0 4.5469-0.92188 6.1875-2.5625s2.5625-3.8672 2.5625-6.1875v-122.5h52.5z"/>

 </g>
</svg>
